<svg xmlns="http://www.w3.org/2000/svg" xmlns:xlink="http://www.w3.org/1999/xlink" xmlns:lucid="lucid" width="1782.5" height="909"><g transform="translate(-157.50004368421048 -99.5)" lucid:page-tab-id="0_0"><path d="M0 0h2000v1000H0z" fill="#fff"/><path d="M1000.5 208h319" stroke="#333" fill="none"/><path d="M1000.5 218v-20M980.5 208h20M1319.5 198v20M1339.5 208h-20" stroke="#333" fill="#fff"/><path d="M679.5 208h-508a12 12 0 0 0-12 12v352a12 12 0 0 0 12 12h8.6" stroke="#333" fill="none"/><path d="M679.5 198v20M699.5 208h-20" stroke="#333" fill="#fff"/><path d="M199.28 594l-20-10 20-10" stroke="#333" fill="#fff" fill-opacity="0"/><path d="M199.28 584h-20" stroke="#333" fill="#fff"/><path d="M700 125a5 5 0 0 1 5-5h270a5 5 0 0 1 5 5v222a5 5 0 0 1-5 5H705a5 5 0 0 1-5-5z" fill="#fff"/><path d="M700 160v-35a5 5 0 0 1 5-5h270a5 5 0 0 1 5 5v35" fill="#dedeff"/><path d="M700 125a5 5 0 0 1 5-5h270a5 5 0 0 1 5 5v222a5 5 0 0 1-5 5H705a5 5 0 0 1-5-5zM700 160h280M840 160v192" stroke="#282c33" fill="none"/><use xlink:href="#a" transform="matrix(1,0,0,1,710,120) translate(0 23.6)"/><use xlink:href="#b" transform="matrix(1,0,0,1,705,162.5) translate(0 17.1)"/><use xlink:href="#c" transform="matrix(1,0,0,1,845,162.5) translate(0 17.1)"/><use xlink:href="#d" transform="matrix(1,0,0,1,705,194.5) translate(0 17.1)"/><use xlink:href="#e" transform="matrix(1,0,0,1,845,194.5) translate(0 17.1)"/><use xlink:href="#f" transform="matrix(1,0,0,1,705,226.5) translate(0 17.1)"/><use xlink:href="#e" transform="matrix(1,0,0,1,845,226.5) translate(0 17.1)"/><use xlink:href="#g" transform="matrix(1,0,0,1,705,258.5) translate(0 17.1)"/><use xlink:href="#h" transform="matrix(1,0,0,1,845,258.5) translate(0 17.1)"/><use xlink:href="#i" transform="matrix(1,0,0,1,705,290.5) translate(0 17.1)"/><use xlink:href="#j" transform="matrix(1,0,0,1,845,290.5) translate(0 17.1)"/><use xlink:href="#k" transform="matrix(1,0,0,1,705,322.5) translate(0 17.1)"/><use xlink:href="#l" transform="matrix(1,0,0,1,845,322.5) translate(0 17.1)"/><path d="M1340 125a5 5 0 0 1 5-5h270a5 5 0 0 1 5 5v158a5 5 0 0 1-5 5h-270a5 5 0 0 1-5-5z" fill="#fff"/><path d="M1340 160v-35a5 5 0 0 1 5-5h270a5 5 0 0 1 5 5v35" fill="#dedeff"/><path d="M1340 125a5 5 0 0 1 5-5h270a5 5 0 0 1 5 5v158a5 5 0 0 1-5 5h-270a5 5 0 0 1-5-5zM1340 160h280" stroke="#282c33" fill="none"/><use xlink:href="#m" transform="matrix(1,0,0,1,1350,120) translate(0 23.6)"/><use xlink:href="#n" transform="matrix(1,0,0,1,1345,162.5) translate(0 17.1)"/><use xlink:href="#o" transform="matrix(1,0,0,1,1345,194.5) translate(0 17.1)"/><use xlink:href="#p" transform="matrix(1,0,0,1,1345,226.5) translate(0 17.1)"/><use xlink:href="#q" transform="matrix(1,0,0,1,1345,258.5) translate(0 17.1)"/><path d="M200 501a5 5 0 0 1 5-5h249.5a5 5 0 0 1 5 5v190a5 5 0 0 1-5 5H205a5 5 0 0 1-5-5z" fill="#fff"/><path d="M200 536v-35a5 5 0 0 1 5-5h249.5a5 5 0 0 1 5 5v35" fill="#dedeff"/><path d="M200 501a5 5 0 0 1 5-5h249.5a5 5 0 0 1 5 5v190a5 5 0 0 1-5 5H205a5 5 0 0 1-5-5zM200 536h259.5M338.28 536v160" stroke="#282c33" fill="none"/><use xlink:href="#r" transform="matrix(1,0,0,1,210,496) translate(0 23.6)"/><use xlink:href="#s" transform="matrix(1,0,0,1,210,496) translate(46.95 23.6)"/><use xlink:href="#t" transform="matrix(1,0,0,1,210,496) translate(57.900000000000006 23.6)"/><use xlink:href="#u" transform="matrix(1,0,0,1,205,538.5) translate(0 17.1)"/><use xlink:href="#v" transform="matrix(1,0,0,1,343.27983457586146,538.5) translate(0 17.1)"/><use xlink:href="#w" transform="matrix(1,0,0,1,205,570.5) translate(0 17.1)"/><use xlink:href="#v" transform="matrix(1,0,0,1,343.27983457586146,570.5) translate(0 17.1)"/><use xlink:href="#x" transform="matrix(1,0,0,1,205,602.5) translate(0 17.1)"/><use xlink:href="#y" transform="matrix(1,0,0,1,343.27983457586146,602.5) translate(0 17.1)"/><use xlink:href="#z" transform="matrix(1,0,0,1,205,634.5) translate(0 17.1)"/><use xlink:href="#c" transform="matrix(1,0,0,1,343.27983457586146,634.5) translate(0 17.1)"/><use xlink:href="#A" transform="matrix(1,0,0,1,205,666.5) translate(0 17.1)"/><use xlink:href="#B" transform="matrix(1,0,0,1,343.27983457586146,666.5) translate(0 17.1)"/><path d="M660 445a5 5 0 0 1 5-5h249.5a5 5 0 0 1 5 5v190a5 5 0 0 1-5 5H665a5 5 0 0 1-5-5z" fill="#fff"/><path d="M660 480v-35a5 5 0 0 1 5-5h249.5a5 5 0 0 1 5 5v35" fill="#dedeff"/><path d="M660 445a5 5 0 0 1 5-5h249.5a5 5 0 0 1 5 5v190a5 5 0 0 1-5 5H665a5 5 0 0 1-5-5zM660 480h259.5M798.28 480v160" stroke="#282c33" fill="none"/><use xlink:href="#B" transform="matrix(1,0,0,1,670,440) translate(0 23.6)"/><use xlink:href="#C" transform="matrix(1,0,0,1,665,482.5) translate(0 17.1)"/><use xlink:href="#c" transform="matrix(1,0,0,1,803.2798345758615,482.5) translate(0 17.1)"/><use xlink:href="#D" transform="matrix(1,0,0,1,665,514.5) translate(0 17.1)"/><use xlink:href="#E" transform="matrix(1,0,0,1,803.2798345758615,514.5) translate(0 17.1)"/><use xlink:href="#F" transform="matrix(1,0,0,1,665,546.5) translate(0 17.1)"/><use xlink:href="#E" transform="matrix(1,0,0,1,803.2798345758615,546.5) translate(0 17.1)"/><use xlink:href="#G" transform="matrix(1,0,0,1,665,578.5) translate(0 17.1)"/><use xlink:href="#G" transform="matrix(1,0,0,1,803.2798345758615,578.5) translate(0 17.1)"/><use xlink:href="#H" transform="matrix(1,0,0,1,665,610.5) translate(0 17.1)"/><use xlink:href="#I" transform="matrix(1,0,0,1,803.2798345758615,610.5) translate(0 17.1)"/><path d="M1140 485a5 5 0 0 1 5-5h270a5 5 0 0 1 5 5v254a5 5 0 0 1-5 5h-270a5 5 0 0 1-5-5z" fill="#fff"/><path d="M1140 520v-35a5 5 0 0 1 5-5h270a5 5 0 0 1 5 5v35" fill="#dedeff"/><path d="M1140 485a5 5 0 0 1 5-5h270a5 5 0 0 1 5 5v254a5 5 0 0 1-5 5h-270a5 5 0 0 1-5-5zM1140 520h280M1278.28 520v224" stroke="#282c33" fill="none"/><use xlink:href="#J" transform="matrix(1,0,0,1,1150,480) translate(0 23.6)"/><use xlink:href="#b" transform="matrix(1,0,0,1,1145,522.5) translate(0 17.1)"/><use xlink:href="#c" transform="matrix(1,0,0,1,1283.2798345758615,522.5) translate(0 17.1)"/><use xlink:href="#K" transform="matrix(1,0,0,1,1145,554.5) translate(0 17.1)"/><use xlink:href="#e" transform="matrix(1,0,0,1,1283.2798345758615,554.5) translate(0 17.1)"/><use xlink:href="#L" transform="matrix(1,0,0,1,1145,586.5) translate(0 17.1)"/><use xlink:href="#M" transform="matrix(1,0,0,1,1283.2798345758615,586.5) translate(0 17.1)"/><use xlink:href="#k" transform="matrix(1,0,0,1,1145,618.5) translate(0 17.1)"/><use xlink:href="#l" transform="matrix(1,0,0,1,1283.2798345758615,618.5) translate(0 17.1)"/><use xlink:href="#N" transform="matrix(1,0,0,1,1145,650.5) translate(0 17.1)"/><use xlink:href="#e" transform="matrix(1,0,0,1,1283.2798345758615,650.5) translate(0 17.1)"/><use xlink:href="#O" transform="matrix(1,0,0,1,1145,682.5) translate(0 17.1)"/><use xlink:href="#P" transform="matrix(1,0,0,1,1283.2798345758615,682.5) translate(0 17.1)"/><use xlink:href="#Q" transform="matrix(1,0,0,1,1145,714.5) translate(0 17.1)"/><use xlink:href="#R" transform="matrix(1,0,0,1,1283.2798345758615,714.5) translate(0 17.1)"/><use xlink:href="#S" transform="matrix(1,0,0,1,1283.2798345758615,714.5) translate(47.85 17.1)"/><path d="M1119.5 568h-77.75a12 12 0 0 1-12-12v-16a12 12 0 0 0-12-12H939.4" stroke="#3a414a" fill="none"/><path d="M1119.5 558v20M1139.5 568h-20" stroke="#3a414a" fill="#fff"/><path d="M920.22 518l20 10-20 10" stroke="#3a414a" fill="#fff" fill-opacity="0"/><path d="M920.22 528h20" stroke="#3a414a" fill="#fff"/><path d="M639.5 624.32h-67.75a12 12 0 0 1-12-12V596a12 12 0 0 0-12-12H480" stroke="#3a414a" fill="none"/><path d="M639.5 614.32v20M659.5 624.32h-20M480 594v-20M460 584h20" stroke="#3a414a" fill="#fff"/><path d="M660 677.5a5 5 0 0 1 5-5h249.5a5 5 0 0 1 5 5v94a5 5 0 0 1-5 5H665a5 5 0 0 1-5-5z" fill="#fff"/><path d="M660 712.5v-35a5 5 0 0 1 5-5h249.5a5 5 0 0 1 5 5v35" fill="#dedeff"/><path d="M660 677.5a5 5 0 0 1 5-5h249.5a5 5 0 0 1 5 5v94a5 5 0 0 1-5 5H665a5 5 0 0 1-5-5zM660 712.5h259.5M798.28 712.5v64" stroke="#282c33" fill="none"/><use xlink:href="#T" transform="matrix(1,0,0,1,670,672.5086623526381) translate(0 23.6)"/><use xlink:href="#K" transform="matrix(1,0,0,1,665,715.0086623526381) translate(0 17.1)"/><use xlink:href="#U" transform="matrix(1,0,0,1,803.2798345758615,715.0086623526381) translate(0 17.1)"/><use xlink:href="#V" transform="matrix(1,0,0,1,665,747.0086623526381) translate(0 17.1)"/><use xlink:href="#U" transform="matrix(1,0,0,1,803.2798345758615,747.0086623526381) translate(0 17.1)"/><path d="M1119.5 600h-77.75a12 12 0 0 0-12 12v68.5a12 12 0 0 1-12 12H939.4" stroke="#3a414a" fill="none"/><path d="M1119.5 590v20M1139.5 600h-20" stroke="#3a414a" fill="#fff"/><path d="M920.22 682.5l20 10-20 10" stroke="#3a414a" fill="#fff" fill-opacity="0"/><path d="M920.22 692.5h20" stroke="#3a414a" fill="#fff"/><path d="M639.5 692.5h-67.75a12 12 0 0 1-12-12V660a12 12 0 0 0-12-12H480" stroke="#3a414a" fill="none"/><path d="M639.5 682.5v20M659.5 692.5h-20M480 658v-20M460 648h20" stroke="#3a414a" fill="#fff"/><path d="M1660 617.32a5 5 0 0 1 5-5h249.5a5 5 0 0 1 5 5v158a5 5 0 0 1-5 5H1665a5 5 0 0 1-5-5z" fill="#fff"/><path d="M1660 652.32v-35a5 5 0 0 1 5-5h249.5a5 5 0 0 1 5 5v35" fill="#dedeff"/><path d="M1660 617.32a5 5 0 0 1 5-5h249.5a5 5 0 0 1 5 5v158a5 5 0 0 1-5 5H1665a5 5 0 0 1-5-5zM1660 652.32h259.5M1798.28 652.32v128" stroke="#282c33" fill="none"/><use xlink:href="#l" transform="matrix(1,0,0,1,1670,612.3180460826492) translate(0 23.6)"/><use xlink:href="#b" transform="matrix(1,0,0,1,1665,654.8180460826492) translate(0 17.1)"/><use xlink:href="#c" transform="matrix(1,0,0,1,1803.2798345758615,654.8180460826492) translate(0 17.1)"/><use xlink:href="#W" transform="matrix(1,0,0,1,1665,686.8180460826492) translate(0 17.1)"/><use xlink:href="#X" transform="matrix(1,0,0,1,1803.2798345758615,686.8180460826492) translate(0 17.1)"/><use xlink:href="#Y" transform="matrix(1,0,0,1,1665,718.8180460826492) translate(0 17.1)"/><use xlink:href="#e" transform="matrix(1,0,0,1,1803.2798345758615,718.8180460826492) translate(0 17.1)"/><use xlink:href="#Z" transform="matrix(1,0,0,1,1665,750.8180460826492) translate(0 17.1)"/><use xlink:href="#X" transform="matrix(1,0,0,1,1803.2798345758615,750.8180460826492) translate(0 17.1)"/><path d="M1639.5 632.07h-199" stroke="#3a414a" fill="none"/><path d="M1639.5 622.07v20M1659.5 632.07h-20M1440.5 642.07v-20M1420.5 632.07h20" stroke="#3a414a" fill="#fff"/><path d="M1789.75 591.82V412a12 12 0 0 0-12-12h-893a12 12 0 0 1-12-12v-16.1" stroke="#3a414a" fill="none"/><path d="M1799.75 591.82h-20M1789.75 611.82v-20" stroke="#3a414a" fill="#fff"/><path d="M882.75 352.72l-10 20-10-20" stroke="#3a414a" fill="#fff" fill-opacity="0"/><path d="M872.75 352.72v20" stroke="#3a414a" fill="#fff"/><path d="M1280 459.5V284.13a12 12 0 0 0-12-12h-248" stroke="#3a414a" fill="none"/><path d="M1290 459.5h-20M1280 479.5v-20M990.5 282.13v-20M980.5 272.13h20M1020.5 272.13c0 5.52-4.48 10-10 10s-10-4.48-10-10 4.48-10 10-10 10 4.48 10 10" stroke="#3a414a" fill="#fff"/><path d="M980 825a5 5 0 0 1 5-5h130a5 5 0 0 1 5 5v158a5 5 0 0 1-5 5H985a5 5 0 0 1-5-5z" fill="#fff"/><path d="M980 860v-35a5 5 0 0 1 5-5h130a5 5 0 0 1 5 5v35" fill="#dedeff"/><path d="M980 825a5 5 0 0 1 5-5h130a5 5 0 0 1 5 5v158a5 5 0 0 1-5 5H985a5 5 0 0 1-5-5zM980 860h140" stroke="#282c33" fill="none"/><use xlink:href="#aa" transform="matrix(1,0,0,1,990,820) translate(0 23.6)"/><use xlink:href="#ab" transform="matrix(1,0,0,1,985,862.5) translate(0 17.1)"/><use xlink:href="#ac" transform="matrix(1,0,0,1,985,894.5) translate(0 17.1)"/><use xlink:href="#ad" transform="matrix(1,0,0,1,985,926.5) translate(0 17.1)"/><use xlink:href="#ae" transform="matrix(1,0,0,1,985,958.5) translate(0 17.1)"/><path d="M959.5 908a9.75 9.75 0 0 1-9.75-9.74v-296.5A9.75 9.75 0 0 0 940 592" stroke="#3a414a" fill="none"/><path d="M959.5 898v20M979.5 908h-20M940 602v-20M920 592h20" stroke="#3a414a" fill="#fff"/><defs><path fill="#333" d="M232-93c-1 65-40 97-104 97C67 4 28-28 28-90v-158h33c8 89-33 224 67 224 102 0 64-133 71-224h33v155" id="af"/><path fill="#333" d="M135-143c-3-34-86-38-87 0 15 53 115 12 119 90S17 21 10-45l28-5c4 36 97 45 98 0-10-56-113-15-118-90-4-57 82-63 122-42 12 7 21 19 24 35" id="ag"/><path fill="#333" d="M100-194c63 0 86 42 84 106H49c0 40 14 67 53 68 26 1 43-12 49-29l28 8c-11 28-37 45-77 45C44 4 14-33 15-96c1-61 26-98 85-98zm52 81c6-60-76-77-97-28-3 7-6 17-6 28h103" id="ah"/><path fill="#333" d="M114-163C36-179 61-72 57 0H25l-1-190h30c1 12-1 29 2 39 6-27 23-49 58-41v29" id="ai"/><g id="a"><use transform="matrix(0.05,0,0,0.05,0,0)" xlink:href="#af"/><use transform="matrix(0.05,0,0,0.05,12.950000000000001,0)" xlink:href="#ag"/><use transform="matrix(0.05,0,0,0.05,21.950000000000003,0)" xlink:href="#ah"/><use transform="matrix(0.05,0,0,0.05,31.950000000000003,0)" xlink:href="#ai"/></g><path fill="#333" d="M-5 72V49h209v23H-5" id="aj"/><path fill="#333" d="M24-231v-30h32v30H24zM24 0v-190h32V0H24" id="ak"/><path fill="#333" d="M85-194c31 0 48 13 60 33l-1-100h32l1 261h-30c-2-10 0-23-3-31C134-8 116 4 85 4 32 4 16-35 15-94c0-66 23-100 70-100zm9 24c-40 0-46 34-46 75 0 40 6 74 45 74 42 0 51-32 51-76 0-42-9-74-50-73" id="al"/><g id="b"><use transform="matrix(0.05,0,0,0.05,0,0)" xlink:href="#aj"/><use transform="matrix(0.05,0,0,0.05,10,0)" xlink:href="#ak"/><use transform="matrix(0.05,0,0,0.05,13.949999999999998,0)" xlink:href="#al"/></g><path fill="#333" d="M140-251c81 0 123 46 123 126C263-46 219 4 140 4 59 4 17-45 17-125s42-126 123-126zm0 227c63 0 89-41 89-101s-29-99-89-99c-61 0-89 39-89 99S79-25 140-24" id="am"/><path fill="#333" d="M115-194c53 0 69 39 70 98 0 66-23 100-70 100C84 3 66-7 56-30L54 0H23l1-261h32v101c10-23 28-34 59-34zm-8 174c40 0 45-34 45-75 0-40-5-75-45-74-42 0-51 32-51 76 0 43 10 73 51 73" id="an"/><path fill="#333" d="M24-231v-30h32v30H24zM-9 49c24 4 33-6 33-30v-209h32V24c2 40-23 58-65 49V49" id="ao"/><path fill="#333" d="M96-169c-40 0-48 33-48 73s9 75 48 75c24 0 41-14 43-38l32 2c-6 37-31 61-74 61-59 0-76-41-82-99-10-93 101-131 147-64 4 7 5 14 7 22l-32 3c-4-21-16-35-41-35" id="ap"/><path fill="#333" d="M59-47c-2 24 18 29 38 22v24C64 9 27 4 27-40v-127H5v-23h24l9-43h21v43h35v23H59v120" id="aq"/><path fill="#333" d="M33 0v-248h34V0H33" id="ar"/><g id="c"><use transform="matrix(0.05,0,0,0.05,0,0)" xlink:href="#am"/><use transform="matrix(0.05,0,0,0.05,14,0)" xlink:href="#an"/><use transform="matrix(0.05,0,0,0.05,24,0)" xlink:href="#ao"/><use transform="matrix(0.05,0,0,0.05,27.950000000000003,0)" xlink:href="#ah"/><use transform="matrix(0.05,0,0,0.05,37.95,0)" xlink:href="#ap"/><use transform="matrix(0.05,0,0,0.05,46.95,0)" xlink:href="#aq"/><use transform="matrix(0.05,0,0,0.05,51.95,0)" xlink:href="#ar"/><use transform="matrix(0.05,0,0,0.05,56.95,0)" xlink:href="#al"/></g><path fill="#333" d="M101-234c-31-9-42 10-38 44h38v23H63V0H32v-167H5v-23h27c-7-52 17-82 69-68v24" id="as"/><path fill="#333" d="M117-194c89-4 53 116 60 194h-32v-121c0-31-8-49-39-48C34-167 62-67 57 0H25l-1-190h30c1 10-1 24 2 32 11-22 29-35 61-36" id="at"/><path fill="#333" d="M141-36C126-15 110 5 73 4 37 3 15-17 15-53c-1-64 63-63 125-63 3-35-9-54-41-54-24 1-41 7-42 31l-33-3c5-37 33-52 76-52 45 0 72 20 72 64v82c-1 20 7 32 28 27v20c-31 9-61-2-59-35zM48-53c0 20 12 33 32 33 41-3 63-29 60-74-43 2-92-5-92 41" id="au"/><path fill="#333" d="M210-169c-67 3-38 105-44 169h-31v-121c0-29-5-50-35-48C34-165 62-65 56 0H25l-1-190h30c1 10-1 24 2 32 10-44 99-50 107 0 11-21 27-35 58-36 85-2 47 119 55 194h-31v-121c0-29-5-49-35-48" id="av"/><g id="d"><use transform="matrix(0.05,0,0,0.05,0,0)" xlink:href="#as"/><use transform="matrix(0.05,0,0,0.05,5,0)" xlink:href="#ak"/><use transform="matrix(0.05,0,0,0.05,8.95,0)" xlink:href="#ai"/><use transform="matrix(0.05,0,0,0.05,14.899999999999999,0)" xlink:href="#ag"/><use transform="matrix(0.05,0,0,0.05,23.9,0)" xlink:href="#aq"/><use transform="matrix(0.05,0,0,0.05,28.899999999999995,0)" xlink:href="#at"/><use transform="matrix(0.05,0,0,0.05,38.9,0)" xlink:href="#au"/><use transform="matrix(0.05,0,0,0.05,48.9,0)" xlink:href="#av"/><use transform="matrix(0.05,0,0,0.05,63.85,0)" xlink:href="#ah"/></g><path fill="#333" d="M185-189c-5-48-123-54-124 2 14 75 158 14 163 119 3 78-121 87-175 55-17-10-28-26-33-46l33-7c5 56 141 63 141-1 0-78-155-14-162-118-5-82 145-84 179-34 5 7 8 16 11 25" id="aw"/><path fill="#333" d="M177-190C167-65 218 103 67 71c-23-6-38-20-44-43l32-5c15 47 100 32 89-28v-30C133-14 115 1 83 1 29 1 15-40 15-95c0-56 16-97 71-98 29-1 48 16 59 35 1-10 0-23 2-32h30zM94-22c36 0 50-32 50-73 0-42-14-75-50-75-39 0-46 34-46 75s6 73 46 73" id="ax"/><g id="e"><use transform="matrix(0.05,0,0,0.05,0,0)" xlink:href="#aw"/><use transform="matrix(0.05,0,0,0.05,12,0)" xlink:href="#aq"/><use transform="matrix(0.05,0,0,0.05,17,0)" xlink:href="#ai"/><use transform="matrix(0.05,0,0,0.05,22.95,0)" xlink:href="#ak"/><use transform="matrix(0.05,0,0,0.05,26.899999999999995,0)" xlink:href="#at"/><use transform="matrix(0.05,0,0,0.05,36.9,0)" xlink:href="#ax"/></g><path fill="#333" d="M24 0v-261h32V0H24" id="ay"/><g id="f"><use transform="matrix(0.05,0,0,0.05,0,0)" xlink:href="#ay"/><use transform="matrix(0.05,0,0,0.05,3.95,0)" xlink:href="#au"/><use transform="matrix(0.05,0,0,0.05,13.949999999999998,0)" xlink:href="#ag"/><use transform="matrix(0.05,0,0,0.05,22.95,0)" xlink:href="#aq"/><use transform="matrix(0.05,0,0,0.05,27.950000000000003,0)" xlink:href="#at"/><use transform="matrix(0.05,0,0,0.05,37.95,0)" xlink:href="#au"/><use transform="matrix(0.05,0,0,0.05,47.95,0)" xlink:href="#av"/><use transform="matrix(0.05,0,0,0.05,62.900000000000006,0)" xlink:href="#ah"/></g><path fill="#333" d="M100-194c62-1 85 37 85 99 1 63-27 99-86 99S16-35 15-95c0-66 28-99 85-99zM99-20c44 1 53-31 53-75 0-43-8-75-51-75s-53 32-53 75 10 74 51 75" id="az"/><g id="g"><use transform="matrix(0.05,0,0,0.05,0,0)" xlink:href="#ai"/><use transform="matrix(0.05,0,0,0.05,5.95,0)" xlink:href="#az"/><use transform="matrix(0.05,0,0,0.05,15.949999999999998,0)" xlink:href="#ay"/><use transform="matrix(0.05,0,0,0.05,19.9,0)" xlink:href="#ah"/></g><path fill="#333" d="M233-177c-1 41-23 64-60 70L243 0h-38l-65-103H63V0H30v-248c88 3 205-21 203 71zM63-129c60-2 137 13 137-47 0-61-80-42-137-45v92" id="aA"/><g id="h"><use transform="matrix(0.05,0,0,0.05,0,0)" xlink:href="#aA"/><use transform="matrix(0.05,0,0,0.05,12.950000000000001,0)" xlink:href="#az"/><use transform="matrix(0.05,0,0,0.05,22.950000000000003,0)" xlink:href="#ay"/><use transform="matrix(0.05,0,0,0.05,26.900000000000002,0)" xlink:href="#ah"/></g><g id="i"><use transform="matrix(0.05,0,0,0.05,0,0)" xlink:href="#ap"/><use transform="matrix(0.05,0,0,0.05,9,0)" xlink:href="#au"/><use transform="matrix(0.05,0,0,0.05,19,0)" xlink:href="#ag"/><use transform="matrix(0.05,0,0,0.05,28,0)" xlink:href="#ah"/><use transform="matrix(0.05,0,0,0.05,38,0)" xlink:href="#ag"/></g><path fill="#333" d="M212-179c-10-28-35-45-73-45-59 0-87 40-87 99 0 60 29 101 89 101 43 0 62-24 78-52l27 14C228-24 195 4 139 4 59 4 22-46 18-125c-6-104 99-153 187-111 19 9 31 26 39 46" id="aB"/><path fill="#333" d="M26 75v-336h71v23H56V52h41v23H26" id="aC"/><path fill="#333" d="M80-196l47-18 7 23-49 13 32 44-20 13-27-46-27 45-21-12 33-44-49-13 8-23 47 19-2-53h23" id="aD"/><path fill="#333" d="M3 75V52h41v-290H3v-23h71V75H3" id="aE"/><g id="j"><use transform="matrix(0.05,0,0,0.05,0,0)" xlink:href="#aB"/><use transform="matrix(0.05,0,0,0.05,12.950000000000001,0)" xlink:href="#au"/><use transform="matrix(0.05,0,0,0.05,22.950000000000003,0)" xlink:href="#ag"/><use transform="matrix(0.05,0,0,0.05,31.950000000000003,0)" xlink:href="#ah"/><use transform="matrix(0.05,0,0,0.05,41.95,0)" xlink:href="#aC"/><use transform="matrix(0.05,0,0,0.05,46.95,0)" xlink:href="#aD"/><use transform="matrix(0.05,0,0,0.05,53.95,0)" xlink:href="#aE"/></g><g id="k"><use transform="matrix(0.05,0,0,0.05,0,0)" xlink:href="#au"/><use transform="matrix(0.05,0,0,0.05,10,0)" xlink:href="#al"/><use transform="matrix(0.05,0,0,0.05,20,0)" xlink:href="#al"/><use transform="matrix(0.05,0,0,0.05,30,0)" xlink:href="#ai"/><use transform="matrix(0.05,0,0,0.05,35.95,0)" xlink:href="#ah"/><use transform="matrix(0.05,0,0,0.05,45.95,0)" xlink:href="#ag"/><use transform="matrix(0.05,0,0,0.05,54.95,0)" xlink:href="#ag"/></g><path fill="#333" d="M205 0l-28-72H64L36 0H1l101-248h38L239 0h-34zm-38-99l-47-123c-12 45-31 82-46 123h93" id="aF"/><g id="l"><use transform="matrix(0.05,0,0,0.05,0,0)" xlink:href="#aF"/><use transform="matrix(0.05,0,0,0.05,12,0)" xlink:href="#al"/><use transform="matrix(0.05,0,0,0.05,22,0)" xlink:href="#al"/><use transform="matrix(0.05,0,0,0.05,32,0)" xlink:href="#ai"/><use transform="matrix(0.05,0,0,0.05,37.95,0)" xlink:href="#ah"/><use transform="matrix(0.05,0,0,0.05,47.95,0)" xlink:href="#ag"/><use transform="matrix(0.05,0,0,0.05,56.95,0)" xlink:href="#ag"/></g><path fill="#333" d="M30 0v-248h187v28H63v79h144v27H63v87h162V0H30" id="aG"/><path fill="#333" d="M190 0L58-211 59 0H30v-248h39L202-35l-2-213h31V0h-41" id="aH"/><path fill="#333" d="M240 0l2-218c-23 76-54 145-80 218h-23L58-218 59 0H30v-248h44l77 211c21-75 51-140 76-211h43V0h-30" id="aI"/><g id="m"><use transform="matrix(0.05,0,0,0.05,0,0)" xlink:href="#aA"/><use transform="matrix(0.05,0,0,0.05,12.950000000000001,0)" xlink:href="#az"/><use transform="matrix(0.05,0,0,0.05,22.950000000000003,0)" xlink:href="#ay"/><use transform="matrix(0.05,0,0,0.05,26.900000000000002,0)" xlink:href="#ah"/><use transform="matrix(0.05,0,0,0.05,36.900000000000006,0)" xlink:href="#ag"/><use transform="matrix(0.05,0,0,0.05,45.900000000000006,0)" xlink:href="#aG"/><use transform="matrix(0.05,0,0,0.05,57.900000000000006,0)" xlink:href="#aH"/><use transform="matrix(0.05,0,0,0.05,70.85000000000001,0)" xlink:href="#af"/><use transform="matrix(0.05,0,0,0.05,83.80000000000001,0)" xlink:href="#aI"/></g><g id="n"><use transform="matrix(0.05,0,0,0.05,0,0)" xlink:href="#au"/><use transform="matrix(0.05,0,0,0.05,10,0)" xlink:href="#al"/><use transform="matrix(0.05,0,0,0.05,20,0)" xlink:href="#av"/><use transform="matrix(0.05,0,0,0.05,34.95,0)" xlink:href="#ak"/><use transform="matrix(0.05,0,0,0.05,38.900000000000006,0)" xlink:href="#at"/></g><path fill="#333" d="M84 4C-5 8 30-112 23-190h32v120c0 31 7 50 39 49 72-2 45-101 50-169h31l1 190h-30c-1-10 1-25-2-33-11 22-28 36-60 37" id="aJ"/><g id="o"><use transform="matrix(0.05,0,0,0.05,0,0)" xlink:href="#an"/><use transform="matrix(0.05,0,0,0.05,10,0)" xlink:href="#ai"/><use transform="matrix(0.05,0,0,0.05,15.949999999999998,0)" xlink:href="#aJ"/><use transform="matrix(0.05,0,0,0.05,25.950000000000003,0)" xlink:href="#ax"/><use transform="matrix(0.05,0,0,0.05,35.95,0)" xlink:href="#ah"/><use transform="matrix(0.05,0,0,0.05,45.95,0)" xlink:href="#ai"/></g><path fill="#333" d="M115-194c55 1 70 41 70 98S169 2 115 4C84 4 66-9 55-30l1 105H24l-1-265h31l2 30c10-21 28-34 59-34zm-8 174c40 0 45-34 45-75s-6-73-45-74c-42 0-51 32-51 76 0 43 10 73 51 73" id="aK"/><path fill="#333" d="M179-190L93 31C79 59 56 82 12 73V49c39 6 53-20 64-50L1-190h34L92-34l54-156h33" id="aL"/><path fill="#333" d="M206 0h-36l-40-164L89 0H53L-1-190h32L70-26l43-164h34l41 164 42-164h31" id="aM"/><g id="p"><use transform="matrix(0.05,0,0,0.05,0,0)" xlink:href="#ap"/><use transform="matrix(0.05,0,0,0.05,9,0)" xlink:href="#az"/><use transform="matrix(0.05,0,0,0.05,19,0)" xlink:href="#av"/><use transform="matrix(0.05,0,0,0.05,33.95,0)" xlink:href="#aK"/><use transform="matrix(0.05,0,0,0.05,43.95,0)" xlink:href="#au"/><use transform="matrix(0.05,0,0,0.05,53.95,0)" xlink:href="#at"/><use transform="matrix(0.05,0,0,0.05,63.95,0)" xlink:href="#aL"/><use transform="matrix(0.05,0,0,0.05,72.95,0)" xlink:href="#am"/><use transform="matrix(0.05,0,0,0.05,86.95,0)" xlink:href="#aM"/><use transform="matrix(0.05,0,0,0.05,99.9,0)" xlink:href="#at"/><use transform="matrix(0.05,0,0,0.05,109.9,0)" xlink:href="#ah"/><use transform="matrix(0.05,0,0,0.05,119.9,0)" xlink:href="#ai"/></g><g id="q"><use transform="matrix(0.05,0,0,0.05,0,0)" xlink:href="#ap"/><use transform="matrix(0.05,0,0,0.05,9,0)" xlink:href="#az"/><use transform="matrix(0.05,0,0,0.05,19,0)" xlink:href="#av"/><use transform="matrix(0.05,0,0,0.05,33.95,0)" xlink:href="#aK"/><use transform="matrix(0.05,0,0,0.05,43.95,0)" xlink:href="#au"/><use transform="matrix(0.05,0,0,0.05,53.95,0)" xlink:href="#at"/><use transform="matrix(0.05,0,0,0.05,63.95,0)" xlink:href="#aL"/><use transform="matrix(0.05,0,0,0.05,72.95,0)" xlink:href="#aF"/><use transform="matrix(0.05,0,0,0.05,84.95,0)" xlink:href="#al"/><use transform="matrix(0.05,0,0,0.05,94.95,0)" xlink:href="#av"/><use transform="matrix(0.05,0,0,0.05,109.9,0)" xlink:href="#ak"/><use transform="matrix(0.05,0,0,0.05,113.85000000000001,0)" xlink:href="#at"/></g><g id="r"><use transform="matrix(0.05,0,0,0.05,0,0)" xlink:href="#aB"/><use transform="matrix(0.05,0,0,0.05,12.950000000000001,0)" xlink:href="#au"/><use transform="matrix(0.05,0,0,0.05,22.950000000000003,0)" xlink:href="#ag"/><use transform="matrix(0.05,0,0,0.05,31.950000000000003,0)" xlink:href="#ah"/></g><path fill="#333" d="M16-82v-28h88v28H16" id="aN"/><use transform="matrix(0.05,0,0,0.05,0,0)" xlink:href="#aN" id="s"/><g id="t"><use transform="matrix(0.05,0,0,0.05,0,0)" xlink:href="#aG"/><use transform="matrix(0.05,0,0,0.05,12,0)" xlink:href="#av"/><use transform="matrix(0.05,0,0,0.05,26.950000000000003,0)" xlink:href="#an"/><use transform="matrix(0.05,0,0,0.05,36.95,0)" xlink:href="#ah"/><use transform="matrix(0.05,0,0,0.05,46.95,0)" xlink:href="#al"/><use transform="matrix(0.05,0,0,0.05,56.95,0)" xlink:href="#al"/><use transform="matrix(0.05,0,0,0.05,66.95,0)" xlink:href="#ah"/><use transform="matrix(0.05,0,0,0.05,76.95,0)" xlink:href="#al"/></g><path fill="#333" d="M30-248c118-7 216 8 213 122C240-48 200 0 122 0H30v-248zM63-27c89 8 146-16 146-99s-60-101-146-95v194" id="aO"/><path fill="#333" d="M108 0H70L1-190h34L89-25l56-165h34" id="aP"/><g id="u"><use transform="matrix(0.05,0,0,0.05,0,0)" xlink:href="#aO"/><use transform="matrix(0.05,0,0,0.05,12.950000000000001,0)" xlink:href="#ah"/><use transform="matrix(0.05,0,0,0.05,22.950000000000003,0)" xlink:href="#aP"/><use transform="matrix(0.05,0,0,0.05,31.950000000000003,0)" xlink:href="#ak"/><use transform="matrix(0.05,0,0,0.05,35.900000000000006,0)" xlink:href="#ap"/><use transform="matrix(0.05,0,0,0.05,44.900000000000006,0)" xlink:href="#ah"/></g><path fill="#333" d="M127-220V0H93v-220H8v-28h204v28h-85" id="aQ"/><g id="v"><use transform="matrix(0.05,0,0,0.05,0,0)" xlink:href="#aQ"/><use transform="matrix(0.05,0,0,0.05,9.950000000000001,0)" xlink:href="#aL"/><use transform="matrix(0.05,0,0,0.05,18.950000000000003,0)" xlink:href="#aK"/><use transform="matrix(0.05,0,0,0.05,28.950000000000003,0)" xlink:href="#ah"/></g><g id="w"><use transform="matrix(0.05,0,0,0.05,0,0)" xlink:href="#ap"/><use transform="matrix(0.05,0,0,0.05,9,0)" xlink:href="#az"/><use transform="matrix(0.05,0,0,0.05,19,0)" xlink:href="#ag"/><use transform="matrix(0.05,0,0,0.05,28,0)" xlink:href="#aq"/></g><g id="x"><use transform="matrix(0.05,0,0,0.05,0,0)" xlink:href="#aq"/><use transform="matrix(0.05,0,0,0.05,5,0)" xlink:href="#aL"/><use transform="matrix(0.05,0,0,0.05,14,0)" xlink:href="#aK"/><use transform="matrix(0.05,0,0,0.05,24,0)" xlink:href="#ah"/></g><g id="y"><use transform="matrix(0.05,0,0,0.05,0,0)" xlink:href="#ag"/><use transform="matrix(0.05,0,0,0.05,9,0)" xlink:href="#aq"/><use transform="matrix(0.05,0,0,0.05,14,0)" xlink:href="#ai"/><use transform="matrix(0.05,0,0,0.05,19.95,0)" xlink:href="#ak"/><use transform="matrix(0.05,0,0,0.05,23.9,0)" xlink:href="#at"/><use transform="matrix(0.05,0,0,0.05,33.9,0)" xlink:href="#ax"/></g><g id="z"><use transform="matrix(0.05,0,0,0.05,0,0)" xlink:href="#ag"/><use transform="matrix(0.05,0,0,0.05,9,0)" xlink:href="#ah"/><use transform="matrix(0.05,0,0,0.05,19,0)" xlink:href="#ai"/><use transform="matrix(0.05,0,0,0.05,24.95,0)" xlink:href="#aP"/><use transform="matrix(0.05,0,0,0.05,33.95,0)" xlink:href="#ak"/><use transform="matrix(0.05,0,0,0.05,37.900000000000006,0)" xlink:href="#ap"/><use transform="matrix(0.05,0,0,0.05,46.900000000000006,0)" xlink:href="#ah"/></g><path fill="#333" d="M143 0L79-87 56-68V0H24v-261h32v163l83-92h37l-77 82L181 0h-38" id="aR"/><g id="A"><use transform="matrix(0.05,0,0,0.05,0,0)" xlink:href="#an"/><use transform="matrix(0.05,0,0,0.05,10,0)" xlink:href="#az"/><use transform="matrix(0.05,0,0,0.05,20,0)" xlink:href="#az"/><use transform="matrix(0.05,0,0,0.05,30,0)" xlink:href="#aR"/><use transform="matrix(0.05,0,0,0.05,39,0)" xlink:href="#ak"/><use transform="matrix(0.05,0,0,0.05,42.95,0)" xlink:href="#at"/><use transform="matrix(0.05,0,0,0.05,52.95,0)" xlink:href="#ax"/><use transform="matrix(0.05,0,0,0.05,62.95,0)" xlink:href="#ar"/><use transform="matrix(0.05,0,0,0.05,67.95,0)" xlink:href="#al"/></g><path fill="#333" d="M160-131c35 5 61 23 61 61C221 17 115-2 30 0v-248c76 3 177-17 177 60 0 33-19 50-47 57zm-97-11c50-1 110 9 110-42 0-47-63-36-110-37v79zm0 115c55-2 124 14 124-45 0-56-70-42-124-44v89" id="aS"/><g id="B"><use transform="matrix(0.05,0,0,0.05,0,0)" xlink:href="#aS"/><use transform="matrix(0.05,0,0,0.05,12,0)" xlink:href="#az"/><use transform="matrix(0.05,0,0,0.05,22,0)" xlink:href="#az"/><use transform="matrix(0.05,0,0,0.05,32,0)" xlink:href="#aR"/><use transform="matrix(0.05,0,0,0.05,41,0)" xlink:href="#ak"/><use transform="matrix(0.05,0,0,0.05,44.95,0)" xlink:href="#at"/><use transform="matrix(0.05,0,0,0.05,54.95,0)" xlink:href="#ax"/></g><g id="C"><use transform="matrix(0.05,0,0,0.05,0,0)" xlink:href="#aj"/><use transform="matrix(0.05,0,0,0.05,10,0)" xlink:href="#an"/><use transform="matrix(0.05,0,0,0.05,20,0)" xlink:href="#az"/><use transform="matrix(0.05,0,0,0.05,30,0)" xlink:href="#az"/><use transform="matrix(0.05,0,0,0.05,40,0)" xlink:href="#aR"/><use transform="matrix(0.05,0,0,0.05,49,0)" xlink:href="#ak"/><use transform="matrix(0.05,0,0,0.05,52.95,0)" xlink:href="#at"/><use transform="matrix(0.05,0,0,0.05,62.95,0)" xlink:href="#ax"/><use transform="matrix(0.05,0,0,0.05,72.95,0)" xlink:href="#ar"/><use transform="matrix(0.05,0,0,0.05,77.95,0)" xlink:href="#al"/></g><g id="D"><use transform="matrix(0.05,0,0,0.05,0,0)" xlink:href="#ag"/><use transform="matrix(0.05,0,0,0.05,9,0)" xlink:href="#aq"/><use transform="matrix(0.05,0,0,0.05,14,0)" xlink:href="#au"/><use transform="matrix(0.05,0,0,0.05,24,0)" xlink:href="#ai"/><use transform="matrix(0.05,0,0,0.05,29.950000000000003,0)" xlink:href="#aq"/><use transform="matrix(0.05,0,0,0.05,34.95,0)" xlink:href="#aQ"/><use transform="matrix(0.05,0,0,0.05,45.25000000000001,0)" xlink:href="#ak"/><use transform="matrix(0.05,0,0,0.05,49.20000000000001,0)" xlink:href="#av"/><use transform="matrix(0.05,0,0,0.05,64.15,0)" xlink:href="#ah"/></g><g id="E"><use transform="matrix(0.05,0,0,0.05,0,0)" xlink:href="#aO"/><use transform="matrix(0.05,0,0,0.05,12.950000000000001,0)" xlink:href="#au"/><use transform="matrix(0.05,0,0,0.05,22.950000000000003,0)" xlink:href="#aq"/><use transform="matrix(0.05,0,0,0.05,27.950000000000003,0)" xlink:href="#ah"/><use transform="matrix(0.05,0,0,0.05,37.95,0)" xlink:href="#aQ"/><use transform="matrix(0.05,0,0,0.05,48.25000000000001,0)" xlink:href="#ak"/><use transform="matrix(0.05,0,0,0.05,52.20000000000002,0)" xlink:href="#av"/><use transform="matrix(0.05,0,0,0.05,67.15,0)" xlink:href="#ah"/></g><g id="F"><use transform="matrix(0.05,0,0,0.05,0,0)" xlink:href="#ah"/><use transform="matrix(0.05,0,0,0.05,10,0)" xlink:href="#at"/><use transform="matrix(0.05,0,0,0.05,20,0)" xlink:href="#al"/><use transform="matrix(0.05,0,0,0.05,30,0)" xlink:href="#aQ"/><use transform="matrix(0.05,0,0,0.05,40.300000000000004,0)" xlink:href="#ak"/><use transform="matrix(0.05,0,0,0.05,44.25000000000001,0)" xlink:href="#av"/><use transform="matrix(0.05,0,0,0.05,59.20000000000002,0)" xlink:href="#ah"/></g><g id="G"><use transform="matrix(0.05,0,0,0.05,0,0)" xlink:href="#ag"/><use transform="matrix(0.05,0,0,0.05,9,0)" xlink:href="#aq"/><use transform="matrix(0.05,0,0,0.05,14,0)" xlink:href="#au"/><use transform="matrix(0.05,0,0,0.05,24,0)" xlink:href="#aq"/><use transform="matrix(0.05,0,0,0.05,29,0)" xlink:href="#aJ"/><use transform="matrix(0.05,0,0,0.05,39,0)" xlink:href="#ag"/></g><g id="H"><use transform="matrix(0.05,0,0,0.05,0,0)" xlink:href="#ap"/><use transform="matrix(0.05,0,0,0.05,9,0)" xlink:href="#au"/><use transform="matrix(0.05,0,0,0.05,19,0)" xlink:href="#ag"/><use transform="matrix(0.05,0,0,0.05,28,0)" xlink:href="#ah"/></g><g id="I"><use transform="matrix(0.05,0,0,0.05,0,0)" xlink:href="#aB"/><use transform="matrix(0.05,0,0,0.05,12.950000000000001,0)" xlink:href="#au"/><use transform="matrix(0.05,0,0,0.05,22.950000000000003,0)" xlink:href="#ag"/><use transform="matrix(0.05,0,0,0.05,31.950000000000003,0)" xlink:href="#ah"/></g><g id="J"><use transform="matrix(0.05,0,0,0.05,0,0)" xlink:href="#aB"/><use transform="matrix(0.05,0,0,0.05,12.950000000000001,0)" xlink:href="#az"/><use transform="matrix(0.05,0,0,0.05,22.950000000000003,0)" xlink:href="#av"/><use transform="matrix(0.05,0,0,0.05,37.900000000000006,0)" xlink:href="#aK"/><use transform="matrix(0.05,0,0,0.05,47.900000000000006,0)" xlink:href="#au"/><use transform="matrix(0.05,0,0,0.05,57.900000000000006,0)" xlink:href="#at"/><use transform="matrix(0.05,0,0,0.05,67.9,0)" xlink:href="#aL"/></g><g id="K"><use transform="matrix(0.05,0,0,0.05,0,0)" xlink:href="#at"/><use transform="matrix(0.05,0,0,0.05,10,0)" xlink:href="#au"/><use transform="matrix(0.05,0,0,0.05,20,0)" xlink:href="#av"/><use transform="matrix(0.05,0,0,0.05,34.95,0)" xlink:href="#ah"/></g><g id="L"><use transform="matrix(0.05,0,0,0.05,0,0)" xlink:href="#ag"/><use transform="matrix(0.05,0,0,0.05,9,0)" xlink:href="#ah"/><use transform="matrix(0.05,0,0,0.05,19,0)" xlink:href="#ai"/><use transform="matrix(0.05,0,0,0.05,24.95,0)" xlink:href="#aP"/><use transform="matrix(0.05,0,0,0.05,33.95,0)" xlink:href="#ak"/><use transform="matrix(0.05,0,0,0.05,37.900000000000006,0)" xlink:href="#ap"/><use transform="matrix(0.05,0,0,0.05,46.900000000000006,0)" xlink:href="#ah"/><use transform="matrix(0.05,0,0,0.05,56.900000000000006,0)" xlink:href="#ag"/></g><g id="M"><use transform="matrix(0.05,0,0,0.05,0,0)" xlink:href="#aC"/><use transform="matrix(0.05,0,0,0.05,5,0)" xlink:href="#aw"/><use transform="matrix(0.05,0,0,0.05,17,0)" xlink:href="#ah"/><use transform="matrix(0.05,0,0,0.05,27,0)" xlink:href="#ai"/><use transform="matrix(0.05,0,0,0.05,32.95,0)" xlink:href="#aP"/><use transform="matrix(0.05,0,0,0.05,41.95,0)" xlink:href="#ak"/><use transform="matrix(0.05,0,0,0.05,45.900000000000006,0)" xlink:href="#ap"/><use transform="matrix(0.05,0,0,0.05,54.900000000000006,0)" xlink:href="#ah"/><use transform="matrix(0.05,0,0,0.05,64.9,0)" xlink:href="#ag"/><use transform="matrix(0.05,0,0,0.05,73.9,0)" xlink:href="#aE"/></g><g id="N"><use transform="matrix(0.05,0,0,0.05,0,0)" xlink:href="#al"/><use transform="matrix(0.05,0,0,0.05,10,0)" xlink:href="#ah"/><use transform="matrix(0.05,0,0,0.05,20,0)" xlink:href="#ag"/><use transform="matrix(0.05,0,0,0.05,29,0)" xlink:href="#ap"/><use transform="matrix(0.05,0,0,0.05,38,0)" xlink:href="#ai"/><use transform="matrix(0.05,0,0,0.05,43.95,0)" xlink:href="#ak"/><use transform="matrix(0.05,0,0,0.05,47.900000000000006,0)" xlink:href="#aK"/><use transform="matrix(0.05,0,0,0.05,57.900000000000006,0)" xlink:href="#aq"/><use transform="matrix(0.05,0,0,0.05,62.900000000000006,0)" xlink:href="#ak"/><use transform="matrix(0.05,0,0,0.05,66.85000000000001,0)" xlink:href="#az"/><use transform="matrix(0.05,0,0,0.05,76.85000000000001,0)" xlink:href="#at"/></g><path fill="#333" d="M63-220v92h138v28H63V0H30v-248h175v28H63" id="aT"/><g id="O"><use transform="matrix(0.05,0,0,0.05,0,0)" xlink:href="#az"/><use transform="matrix(0.05,0,0,0.05,10,0)" xlink:href="#aK"/><use transform="matrix(0.05,0,0,0.05,20,0)" xlink:href="#ah"/><use transform="matrix(0.05,0,0,0.05,30,0)" xlink:href="#at"/><use transform="matrix(0.05,0,0,0.05,40,0)" xlink:href="#aT"/><use transform="matrix(0.05,0,0,0.05,50.95,0)" xlink:href="#az"/><use transform="matrix(0.05,0,0,0.05,60.95,0)" xlink:href="#ai"/><use transform="matrix(0.05,0,0,0.05,66.9,0)" xlink:href="#aS"/><use transform="matrix(0.05,0,0,0.05,78.9,0)" xlink:href="#az"/><use transform="matrix(0.05,0,0,0.05,88.9,0)" xlink:href="#az"/><use transform="matrix(0.05,0,0,0.05,98.9,0)" xlink:href="#aR"/><use transform="matrix(0.05,0,0,0.05,107.9,0)" xlink:href="#ak"/><use transform="matrix(0.05,0,0,0.05,111.85000000000001,0)" xlink:href="#at"/><use transform="matrix(0.05,0,0,0.05,121.85000000000001,0)" xlink:href="#ax"/><use transform="matrix(0.05,0,0,0.05,131.85000000000002,0)" xlink:href="#ag"/></g><g id="P"><use transform="matrix(0.05,0,0,0.05,0,0)" xlink:href="#aS"/><use transform="matrix(0.05,0,0,0.05,12,0)" xlink:href="#az"/><use transform="matrix(0.05,0,0,0.05,22,0)" xlink:href="#az"/><use transform="matrix(0.05,0,0,0.05,32,0)" xlink:href="#ay"/><use transform="matrix(0.05,0,0,0.05,35.95,0)" xlink:href="#ah"/><use transform="matrix(0.05,0,0,0.05,45.95,0)" xlink:href="#au"/><use transform="matrix(0.05,0,0,0.05,55.95,0)" xlink:href="#at"/></g><g id="Q"><use transform="matrix(0.05,0,0,0.05,0,0)" xlink:href="#an"/><use transform="matrix(0.05,0,0,0.05,10,0)" xlink:href="#aJ"/><use transform="matrix(0.05,0,0,0.05,20,0)" xlink:href="#ag"/><use transform="matrix(0.05,0,0,0.05,29,0)" xlink:href="#aL"/></g><g id="R"><use transform="matrix(0.05,0,0,0.05,0,0)" xlink:href="#aP"/><use transform="matrix(0.05,0,0,0.05,9,0)" xlink:href="#ak"/><use transform="matrix(0.05,0,0,0.05,12.949999999999998,0)" xlink:href="#ai"/><use transform="matrix(0.05,0,0,0.05,18.9,0)" xlink:href="#aJ"/><use transform="matrix(0.05,0,0,0.05,28.899999999999995,0)" xlink:href="#au"/><use transform="matrix(0.05,0,0,0.05,38.9,0)" xlink:href="#ay"/></g><g id="S"><use transform="matrix(0.05,0,0,0.05,0,0)" xlink:href="#ah"/><use transform="matrix(0.05,0,0,0.05,10,0)" xlink:href="#at"/><use transform="matrix(0.05,0,0,0.05,20,0)" xlink:href="#aJ"/><use transform="matrix(0.05,0,0,0.05,30,0)" xlink:href="#av"/></g><g id="T"><use transform="matrix(0.05,0,0,0.05,0,0)" xlink:href="#aw"/><use transform="matrix(0.05,0,0,0.05,12,0)" xlink:href="#ah"/><use transform="matrix(0.05,0,0,0.05,22,0)" xlink:href="#ai"/><use transform="matrix(0.05,0,0,0.05,27.950000000000003,0)" xlink:href="#aP"/><use transform="matrix(0.05,0,0,0.05,36.95,0)" xlink:href="#ak"/><use transform="matrix(0.05,0,0,0.05,40.900000000000006,0)" xlink:href="#ap"/><use transform="matrix(0.05,0,0,0.05,49.900000000000006,0)" xlink:href="#ah"/><use transform="matrix(0.05,0,0,0.05,59.900000000000006,0)" xlink:href="#ag"/></g><g id="U"><use transform="matrix(0.05,0,0,0.05,0,0)" xlink:href="#aQ"/><use transform="matrix(0.05,0,0,0.05,9.950000000000001,0)" xlink:href="#aL"/><use transform="matrix(0.05,0,0,0.05,18.950000000000003,0)" xlink:href="#aK"/><use transform="matrix(0.05,0,0,0.05,28.950000000000003,0)" xlink:href="#ah"/></g><g id="V"><use transform="matrix(0.05,0,0,0.05,0,0)" xlink:href="#ah"/><use transform="matrix(0.05,0,0,0.05,10,0)" xlink:href="#ag"/><use transform="matrix(0.05,0,0,0.05,19,0)" xlink:href="#aq"/><use transform="matrix(0.05,0,0,0.05,24,0)" xlink:href="#ak"/><use transform="matrix(0.05,0,0,0.05,27.950000000000003,0)" xlink:href="#av"/><use transform="matrix(0.05,0,0,0.05,42.9,0)" xlink:href="#au"/><use transform="matrix(0.05,0,0,0.05,52.900000000000006,0)" xlink:href="#aq"/><use transform="matrix(0.05,0,0,0.05,57.900000000000006,0)" xlink:href="#ah"/><use transform="matrix(0.05,0,0,0.05,67.9,0)" xlink:href="#al"/><use transform="matrix(0.05,0,0,0.05,77.9,0)" xlink:href="#aQ"/><use transform="matrix(0.05,0,0,0.05,88.2,0)" xlink:href="#ak"/><use transform="matrix(0.05,0,0,0.05,92.15,0)" xlink:href="#av"/><use transform="matrix(0.05,0,0,0.05,107.10000000000001,0)" xlink:href="#ah"/></g><path fill="#333" d="M9 0v-24l116-142H16v-24h144v24L44-24h123V0H9" id="aU"/><g id="W"><use transform="matrix(0.05,0,0,0.05,0,0)" xlink:href="#ap"/><use transform="matrix(0.05,0,0,0.05,9,0)" xlink:href="#ak"/><use transform="matrix(0.05,0,0,0.05,12.949999999999998,0)" xlink:href="#aq"/><use transform="matrix(0.05,0,0,0.05,17.95,0)" xlink:href="#aL"/><use transform="matrix(0.05,0,0,0.05,26.950000000000003,0)" xlink:href="#aU"/><use transform="matrix(0.05,0,0,0.05,35.95,0)" xlink:href="#ak"/><use transform="matrix(0.05,0,0,0.05,39.900000000000006,0)" xlink:href="#aK"/></g><g id="X"><use transform="matrix(0.05,0,0,0.05,0,0)" xlink:href="#aH"/><use transform="matrix(0.05,0,0,0.05,12.950000000000001,0)" xlink:href="#aJ"/><use transform="matrix(0.05,0,0,0.05,22.950000000000003,0)" xlink:href="#av"/><use transform="matrix(0.05,0,0,0.05,37.900000000000006,0)" xlink:href="#an"/><use transform="matrix(0.05,0,0,0.05,47.900000000000006,0)" xlink:href="#ah"/><use transform="matrix(0.05,0,0,0.05,57.900000000000006,0)" xlink:href="#ai"/></g><g id="Y"><use transform="matrix(0.05,0,0,0.05,0,0)" xlink:href="#ag"/><use transform="matrix(0.05,0,0,0.05,9,0)" xlink:href="#aq"/><use transform="matrix(0.05,0,0,0.05,14,0)" xlink:href="#ai"/><use transform="matrix(0.05,0,0,0.05,19.95,0)" xlink:href="#ah"/><use transform="matrix(0.05,0,0,0.05,29.950000000000003,0)" xlink:href="#ah"/><use transform="matrix(0.05,0,0,0.05,39.95,0)" xlink:href="#aq"/></g><path fill="#333" d="M106-169C34-169 62-67 57 0H25v-261h32l-1 103c12-21 28-36 61-36 89 0 53 116 60 194h-32v-121c2-32-8-49-39-48" id="aV"/><g id="Z"><use transform="matrix(0.05,0,0,0.05,0,0)" xlink:href="#aV"/><use transform="matrix(0.05,0,0,0.05,10,0)" xlink:href="#az"/><use transform="matrix(0.05,0,0,0.05,20,0)" xlink:href="#aJ"/><use transform="matrix(0.05,0,0,0.05,30,0)" xlink:href="#ag"/><use transform="matrix(0.05,0,0,0.05,39,0)" xlink:href="#ah"/><use transform="matrix(0.05,0,0,0.05,49,0)" xlink:href="#at"/><use transform="matrix(0.05,0,0,0.05,59,0)" xlink:href="#aJ"/><use transform="matrix(0.05,0,0,0.05,69,0)" xlink:href="#av"/><use transform="matrix(0.05,0,0,0.05,83.95,0)" xlink:href="#an"/><use transform="matrix(0.05,0,0,0.05,93.95,0)" xlink:href="#ah"/><use transform="matrix(0.05,0,0,0.05,103.95,0)" xlink:href="#ai"/></g><g id="aa"><use transform="matrix(0.05,0,0,0.05,0,0)" xlink:href="#aw"/><use transform="matrix(0.05,0,0,0.05,12,0)" xlink:href="#aq"/><use transform="matrix(0.05,0,0,0.05,17,0)" xlink:href="#au"/><use transform="matrix(0.05,0,0,0.05,27,0)" xlink:href="#aq"/><use transform="matrix(0.05,0,0,0.05,32,0)" xlink:href="#aJ"/><use transform="matrix(0.05,0,0,0.05,42,0)" xlink:href="#ag"/><use transform="matrix(0.05,0,0,0.05,51,0)" xlink:href="#aG"/><use transform="matrix(0.05,0,0,0.05,63,0)" xlink:href="#aH"/><use transform="matrix(0.05,0,0,0.05,75.95,0)" xlink:href="#af"/><use transform="matrix(0.05,0,0,0.05,88.9,0)" xlink:href="#aI"/></g><g id="ab"><use transform="matrix(0.05,0,0,0.05,0,0)" xlink:href="#az"/><use transform="matrix(0.05,0,0,0.05,10,0)" xlink:href="#at"/><use transform="matrix(0.05,0,0,0.05,20,0)" xlink:href="#ax"/><use transform="matrix(0.05,0,0,0.05,30,0)" xlink:href="#az"/><use transform="matrix(0.05,0,0,0.05,40,0)" xlink:href="#ak"/><use transform="matrix(0.05,0,0,0.05,43.95,0)" xlink:href="#at"/><use transform="matrix(0.05,0,0,0.05,53.95,0)" xlink:href="#ax"/></g><g id="ac"><use transform="matrix(0.05,0,0,0.05,0,0)" xlink:href="#ap"/><use transform="matrix(0.05,0,0,0.05,9,0)" xlink:href="#au"/><use transform="matrix(0.05,0,0,0.05,19,0)" xlink:href="#at"/><use transform="matrix(0.05,0,0,0.05,29,0)" xlink:href="#ap"/><use transform="matrix(0.05,0,0,0.05,38,0)" xlink:href="#ah"/><use transform="matrix(0.05,0,0,0.05,48,0)" xlink:href="#ay"/><use transform="matrix(0.05,0,0,0.05,51.95,0)" xlink:href="#ay"/><use transform="matrix(0.05,0,0,0.05,55.900000000000006,0)" xlink:href="#ah"/><use transform="matrix(0.05,0,0,0.05,65.9,0)" xlink:href="#al"/></g><g id="ad"><use transform="matrix(0.05,0,0,0.05,0,0)" xlink:href="#ap"/><use transform="matrix(0.05,0,0,0.05,9,0)" xlink:href="#az"/><use transform="matrix(0.05,0,0,0.05,19,0)" xlink:href="#av"/><use transform="matrix(0.05,0,0,0.05,33.95,0)" xlink:href="#aK"/><use transform="matrix(0.05,0,0,0.05,43.95,0)" xlink:href="#ay"/><use transform="matrix(0.05,0,0,0.05,47.900000000000006,0)" xlink:href="#ah"/><use transform="matrix(0.05,0,0,0.05,57.900000000000006,0)" xlink:href="#aq"/><use transform="matrix(0.05,0,0,0.05,62.900000000000006,0)" xlink:href="#ah"/><use transform="matrix(0.05,0,0,0.05,72.9,0)" xlink:href="#al"/></g><g id="ae"><use transform="matrix(0.05,0,0,0.05,0,0)" xlink:href="#az"/><use transform="matrix(0.05,0,0,0.05,10,0)" xlink:href="#at"/><use transform="matrix(0.05,0,0,0.05,20,0)" xlink:href="#aV"/><use transform="matrix(0.05,0,0,0.05,30,0)" xlink:href="#az"/><use transform="matrix(0.05,0,0,0.05,40,0)" xlink:href="#ay"/><use transform="matrix(0.05,0,0,0.05,43.95,0)" xlink:href="#al"/></g></defs></g></svg>